<?xml version="1.0" encoding="UTF-8"?><svg id="a" xmlns="http://www.w3.org/2000/svg" viewBox="0 0 2711 868"><defs><style>.b{fill:#fff;}</style></defs><g><path class="b" d="M348.94,163.9c-3.16-2.7-4.07-5.5-4.29-9.45-.8-14.89-12.23-25.17-26.18-24.02-13.36,1.1-23.57,13.11-22.18,26.07,1.57,14.8,13.43,24.1,28.62,21.85,3.78-.56,6.41-.03,9.22,2.41,23.51,20.39,42.22,44.4,56.37,71.93l20.24-8.75c-14.84-31.13-35.5-57.8-61.8-80.03Zm-23.02,.31c-4.83,3.28-12.69,.9-15.16-4.63-2.67-6.01-1.11-11.27,4.69-14.43,5.94-3.22,10.82-.95,14.59,4.17,2.62,6.17,1.23,11.23-4.12,14.88Zm121.98,59.38c-7.06-14.44-12.61-29.58-20.2-43.84-11.34-21.24-21.89-42.93-32.76-64.42-1.5-2.96-2.52-5.33-.74-9.2,6.15-13.42,.11-27.6-13.21-32.95-12.29-4.93-26.86,1.84-31.56,14.66-4.8,13.14,2.26,27.24,16.5,31.4,5.26,1.53,7.87,4.51,10.15,9.01,16.96,33.66,34.13,67.24,51.18,100.85,1.08,2.1,2.04,4.24,2.95,6.43l19.45-8.42c-.53-.99-1.1-2.17-1.77-3.53Zm-70.59-117.69c-6.05,1.86-11.25,.98-14.51-4.9-3.08-5.48-.65-12.23,5.22-14.77,6.24-2.69,11.3-.57,14.09,5.22,2.84,5.88,.5,10.84-4.8,14.45Zm112.21,103.45c-8.28-13.97-14.41-29.19-19.05-44.34-4.76-15.6-4.38-32.78-6.3-49.25-.41-3.53,1.41-5.61,3.72-7.99,10.53-10.9,10-26.26-.95-36.04-9.84-8.75-25.35-7.59-34.25,2.6-9.28,10.59-7.75,26.07,3.93,35.23,3.5,2.74,4.73,5.59,5.22,9.87,3.76,33.57,9.31,66.71,26.31,96.7,.47,.81,.87,1.64,1.27,2.47l20.4-8.79c-.11-.14-.19-.3-.3-.46Zm-33.35-109.51c-5.78,3.02-11.33,1.32-14.46-4.6-2.88-5.43-3.68-11.01,3.3-13.51,6.88-3.59,13.31-2.13,15.77,3.52,2.6,6.01,1.22,11.55-4.6,14.59Z"/><path class="b" d="M844.52,379.31c.42,79.37-19.63,130.97-55.15,177.24-47.93,62.43-95.55,125.09-143.45,187.53-34.73,45.27-64.65,45.79-99.53,.76-50.46-65.15-100.48-130.64-149.98-196.53-11.04-14.69-21.14-30.78-28.12-47.69-12.02-29.14,.15-58.28,26.54-70.16,27.86-12.54,55.48-4,70.48,24.87,17.33,33.35,40.47,59.34,75.79,73.71,71.13,28.94,148.45-.91,182.56-70.78,31.58-64.67,7.39-143.24-55.83-181.31-43.09-25.95-55.51-53.78-37.36-83.68,18.51-30.49,50.36-34.61,92.33-8.28,78.77,49.41,119.28,121.51,121.71,194.31Z"/><path class="b" d="M348.22,370.46c5.46-107.31,114.66-215.91,220.2-218.56,11.59-.29,24.72-.87,25.62,16.82,.84,16.71-5.05,23.98-23.22,26.41-91.92,12.32-168.79,84.34-179.2,173.15-.32,2.75-1.2,5.46-1.37,8.21-.95,15.36-8.23,25.45-24.33,23.2-16.15-2.26-19.76-14.61-17.68-29.24Z"/><path class="b" d="M414.54,373.23c9.46-83.61,79.17-143.84,154.9-155.11,13.57-2.02,22,6.29,24.61,20.51,2.82,15.33-6.56,18.6-18.17,20.89-66.97,13.24-108.35,52.31-120.29,120.52-2.31,13.2-9.97,20.42-22.58,19.24-14.82-1.38-19.09-12.54-18.48-26.06Z"/></g><g><path class="b" d="M1055.91,668.81c-13.66,12.61-26.88,22.07-39.65,28.37-12.77,6.3-27.09,9.46-42.96,9.46-14.49,0-27.23-3.4-38.2-10.19-10.97-6.79-19.43-16-25.36-27.63-5.94-11.63-8.9-24.23-8.9-37.82,0-18.34,4.9-33.98,14.7-46.91,9.8-12.93,23.26-21.61,40.37-26.04,3.59-.98,12.49-3.19,26.71-6.63,14.21-3.44,26.4-6.59,36.54-9.46,10.14-2.86,21.15-6.35,33.02-10.44-.69-17.68-3.7-30.66-9.01-38.93-5.31-8.27-16.32-12.4-33.02-12.4-14.36,0-25.16,2.37-32.4,7.12-7.25,4.75-13.46,11.87-18.63,21.37-5.18,9.5-8.83,15.76-10.97,18.79-2.14,3.03-6.73,4.54-13.77,4.54-6.35,0-11.84-2.42-16.46-7.25-4.63-4.83-6.94-11.01-6.94-18.54,0-11.79,3.52-23.25,10.56-34.39,7.04-11.13,18.01-20.3,32.92-27.51,14.91-7.2,33.47-10.81,55.69-10.81,24.84,0,44.38,3.48,58.59,10.44,14.21,6.96,24.26,17.97,30.12,33.04,5.87,15.07,8.8,35.04,8.8,59.93,0,15.72-.03,29.07-.1,40.04-.07,10.97-.18,23.17-.31,36.6,0,12.61,1.76,25.75,5.28,39.42,3.52,13.67,5.28,22.47,5.28,26.4,0,6.88-2.73,13.14-8.18,18.79-5.45,5.65-11.63,8.47-18.53,8.47-5.8,0-11.53-3.23-17.18-9.7-5.66-6.47-11.67-15.84-18.01-28.12Zm-3.73-97.02c-8.28,3.6-20.32,7.41-36.13,11.42-15.81,4.02-26.74,6.96-32.82,8.84-6.08,1.88-11.87,5.57-17.39,11.05-5.52,5.49-8.28,13.14-8.28,22.97s3.24,18.79,9.73,25.91c6.49,7.12,14.98,10.68,25.47,10.68,11.18,0,21.5-2.91,30.95-8.72,9.45-5.81,16.39-13.3,20.81-22.47,5.1-10.15,7.66-26.85,7.66-50.11v-9.58Z"/><path class="b" d="M1337.9,619.32c0,18.51-3.8,34.35-11.39,47.53-7.59,13.18-18.81,23.17-33.64,29.97-14.84,6.79-32.89,10.19-54.14,10.19s-37.68-3.68-52.17-11.05-25.19-16.58-32.09-27.63c-6.9-11.05-10.35-22.14-10.35-33.28,0-7.37,2.21-13.67,6.63-18.91s10.01-7.86,16.77-7.86c5.93,0,10.49,1.72,13.66,5.16,3.17,3.44,6.21,8.27,9.11,14.49,5.8,11.95,12.73,20.88,20.81,26.77,8.07,5.89,19.08,8.84,33.02,8.84,11.32,0,20.6-2.98,27.85-8.96,7.25-5.98,10.87-12.81,10.87-20.51,0-11.79-3.76-20.39-11.28-25.79-7.53-5.4-19.91-10.56-37.16-15.47-19.46-5.73-35.3-11.75-47.52-18.05-12.22-6.3-21.98-14.61-29.3-24.93-7.32-10.32-10.97-23-10.97-38.07,0-13.42,3.38-26.12,10.14-38.07,6.76-11.95,16.74-21.49,29.92-28.61,13.18-7.12,29.09-10.68,47.72-10.68,14.63,0,27.77,1.8,39.44,5.4,11.66,3.6,21.39,8.44,29.19,14.49,7.8,6.06,13.73,12.77,17.81,20.14,4.07,7.37,6.11,14.58,6.11,21.61,0,7.7-2.17,14-6.52,18.91s-10.53,7.37-18.53,7.37c-5.8,0-10.73-1.96-14.8-5.89-4.07-3.93-8.73-9.82-13.98-17.68-4.28-6.55-9.32-11.79-15.11-15.72s-13.66-5.89-23.6-5.89-18.71,2.58-25.47,7.74c-6.76,5.16-10.14,11.58-10.14,19.28,0,7.04,2.48,12.81,7.45,17.32,4.97,4.51,11.66,8.23,20.08,11.18,8.42,2.95,20.01,6.55,34.78,10.81,17.53,5.08,31.85,11.14,42.96,18.18,11.11,7.04,19.53,15.35,25.26,24.93,5.73,9.58,8.59,20.51,8.59,32.79Z"/><path class="b" d="M1460.05,599.67h-65.42c-9.94,0-17.49-2.74-22.67-8.23-5.18-5.49-7.76-12.56-7.76-21.25s2.52-16,7.56-21.49c5.04-5.49,12.66-8.23,22.88-8.23h65.42c10.21,0,17.84,2.74,22.88,8.23,5.04,5.49,7.56,12.65,7.56,21.49s-2.48,15.76-7.45,21.25c-4.97,5.49-12.63,8.23-22.98,8.23Z"/><path class="b" d="M1660.46,700.86h-92.75c-13.39,0-22.95-3.56-28.67-10.68-5.73-7.12-8.59-18.46-8.59-34.02V385.49c0-15.88,2.93-27.3,8.8-34.26,5.87-6.96,15.35-10.44,28.47-10.44h98.34c14.49,0,27.05,1.07,37.68,3.19,10.63,2.13,20.15,6.23,28.57,12.28,7.18,5.08,13.53,11.51,19.05,19.28,5.52,7.78,9.73,16.37,12.63,25.79,2.9,9.42,4.35,19.37,4.35,29.84,0,36.02-15.18,62.39-45.55,79.09,39.89,15.07,59.83,44.37,59.83,87.93,0,20.14-4.35,38.28-13.04,54.4-8.7,16.13-20.43,28.04-35.2,35.74-9.25,4.58-19.88,7.82-31.88,9.7-12.01,1.88-26.02,2.82-42.03,2.82Zm-68.53-305.3v93.09h56.31c15.32,0,27.15-1.72,35.5-5.16,8.35-3.44,14.73-9.98,19.15-19.65,3.45-6.88,5.18-14.57,5.18-23.09,0-18.18-5.45-30.25-16.36-36.23-10.9-5.98-27.54-8.96-49.89-8.96h-49.9Zm63.97,145.4h-63.97v105.12h66.05c41.54,0,62.32-17.77,62.32-53.3,0-18.18-5.38-31.35-16.15-39.54-10.77-8.19-26.85-12.28-48.24-12.28Z"/><path class="b" d="M1978.68,669.18v-8.6c-6.76,10.16-13.87,18.67-21.32,25.54s-15.6,12-24.43,15.35c-8.83,3.35-18.91,5.04-30.23,5.04-13.66,0-25.91-3.36-36.75-10.07-10.84-6.71-19.22-15.96-25.16-27.75-7.04-14.25-10.56-34.71-10.56-61.4v-132.88c0-13.42,2.55-23.46,7.66-30.09,5.11-6.63,11.87-9.95,20.29-9.95s15.46,3.36,20.7,10.07c5.24,6.72,7.87,16.7,7.87,29.97v107.33c0,15.56,1.1,28.61,3.31,39.18,2.21,10.56,6.18,18.83,11.9,24.81,5.73,5.98,13.49,8.96,23.29,8.96s18.5-3.35,26.92-10.07c8.42-6.71,14.56-15.47,18.43-26.28,3.17-9.49,4.76-30.29,4.76-62.39v-81.54c0-13.26,2.62-23.25,7.87-29.97,5.24-6.71,12.08-10.07,20.5-10.07s15.18,3.32,20.29,9.95c5.11,6.63,7.66,16.66,7.66,30.09v194.28c0,12.77-2.45,22.35-7.35,28.74-4.9,6.39-11.21,9.58-18.94,9.58s-14.11-3.32-19.15-9.95-7.56-15.92-7.56-27.88Z"/><path class="b" d="M2116.57,403.18c-7.87,0-14.6-2.86-20.19-8.6-5.59-5.73-8.39-13.84-8.39-24.32,0-9.49,2.86-17.32,8.59-23.46s12.39-9.21,19.98-9.21,13.8,2.79,19.46,8.35c5.66,5.57,8.49,13.67,8.49,24.32s-2.76,18.38-8.28,24.19c-5.52,5.81-12.08,8.72-19.67,8.72Zm27.95,69.26v193.79c0,13.43-2.69,23.58-8.07,30.46-5.38,6.88-12.22,10.32-20.5,10.32s-15.01-3.52-20.19-10.56c-5.18-7.04-7.76-17.11-7.76-30.21v-191.83c0-13.26,2.59-23.25,7.76-29.97,5.18-6.71,11.9-10.07,20.19-10.07s15.11,3.36,20.5,10.07c5.38,6.72,8.07,16.05,8.07,28Z"/><path class="b" d="M2202.9,666.23V375.42c0-13.42,2.52-23.58,7.56-30.46,5.04-6.88,11.84-10.32,20.39-10.32s15.46,3.4,20.7,10.19c5.24,6.8,7.87,16.99,7.87,30.58v290.81c0,13.59-2.66,23.79-7.97,30.58-5.31,6.79-12.18,10.19-20.6,10.19s-15.01-3.52-20.19-10.56c-5.18-7.04-7.76-17.11-7.76-30.21Z"/><path class="b" d="M2320.92,440.26h6.21v-40.28c0-10.81,.24-19.28,.72-25.42,.48-6.14,1.83-11.42,4.04-15.84,2.21-4.58,5.38-8.31,9.52-11.18,4.14-2.86,8.76-4.3,13.87-4.3,7.18,0,13.66,3.19,19.46,9.58,3.86,4.26,6.31,9.46,7.35,15.6,1.04,6.14,1.55,14.86,1.55,26.16v45.68h20.7c8.01,0,14.11,2.25,18.32,6.75,4.21,4.51,6.31,10.28,6.31,17.32,0,9.01-3,15.31-9.01,18.91-6,3.6-14.6,5.4-25.78,5.4h-10.56v123.3c0,10.48,.31,18.54,.93,24.19,.62,5.65,2.28,10.23,4.97,13.75,2.69,3.52,7.07,5.28,13.15,5.28,3.31,0,7.8-.7,13.46-2.09,5.66-1.39,10.08-2.09,13.25-2.09,4.55,0,8.66,2.17,12.32,6.51,3.66,4.34,5.49,9.7,5.49,16.09,0,10.81-4.97,19.08-14.91,24.81-9.94,5.73-24.22,8.6-42.86,8.6-17.67,0-31.06-3.52-40.17-10.56-9.11-7.04-15.08-16.78-17.91-29.23-2.83-12.44-4.24-29.06-4.24-49.86v-128.7h-7.45c-8.14,0-14.35-2.29-18.63-6.88-4.28-4.58-6.42-10.4-6.42-17.44s2.24-12.81,6.73-17.32c4.49-4.5,11.01-6.75,19.57-6.75Z"/></g></svg>