<svg id="Calque_1" data-name="Calque 1" xmlns="http://www.w3.org/2000/svg" viewBox="0 0 388.14 132.29"><defs><style>.cls-1{fill:#211f5c;}.cls-2{fill:#00eda6;}</style></defs><g id="Calque_1-2" data-name="Calque 1-2"><path class="cls-1" d="M67.52,73.61C55.61,73.61,48,66.85,48,54.27s7.62-19.34,19.53-19.34,19,6.26,19.59,17.94v2.8c-.55,11.68-8,18-19.59,18M94.29,28.93H87.11v6.91c-4.69-4.46-11.44-6.91-19.59-6.91-16,0-26.67,9.53-26.67,25.34S51.52,79.61,67.52,79.61c8.15,0,14.9-2.44,19.59-6.9v6.86h7.18Z"/><rect class="cls-1" x="155.01" y="28.93" width="7.18" height="50.21"/><polygon class="cls-1" points="150.87 28.83 141.36 28.83 124.61 48.1 107.86 28.83 98.34 28.83 119.85 53.58 97.26 79.57 106.77 79.57 124.61 59.05 142.07 79.14 151.59 79.14 129.37 53.58 150.87 28.83"/><path class="cls-2" d="M195.67,63.4c-11.91,0-19.53-6.77-19.53-19.34s7.63-19.34,19.53-19.34,19.63,6.76,19.63,19.34S207.67,63.4,195.67,63.4m0-44.68c-16,0-26.67,9.53-26.67,25.34S179.67,69.4,195.67,69.4s26.77-9.53,26.77-25.34-10.67-25.34-26.77-25.34"/><path class="cls-1" d="M282.68,53.25h0c-.45-15.2-11-24.31-26.74-24.31-8.1,0-14.82,2.44-19.5,6.89V28.93h-7.18V79.14h7.18V52.9c.54-11.69,8-18,19.5-18s19,6.26,19.59,17.94V79.61h7.18Z"/><path class="cls-1" d="M296.78,51.27c1.14-10.64,8.44-16.34,19.37-16.34s18.33,5.7,19.47,16.34Zm19.37-22.34c-16,0-26.67,9.53-26.67,25.34v.14c0,9.34,3.81,16.47,10.21,20.73,4.38,2.91,10,4.47,16.47,4.47,11.76,0,20.61-5.08,24.53-14h-7.77c-3.25,5.23-9.12,8-16.76,8S303,71,299.69,66a18.89,18.89,0,0,1-2.75-7.5h45.72a31.38,31.38,0,0,0,.26-4.18c0-15.81-10.67-25.34-26.77-25.34"/><path class="cls-2" d="M214.31,79.14c-4.63-3.92-11-6-18.65-6s-13.95,2.13-18.56,6Z"/><polyline class="cls-1" points="40.85 108.31 139.57 108.31 139.57 107.28 40.85 107.28"/><polyline class="cls-1" points="244.09 108.31 342.81 108.31 342.81 107.28 244.09 107.28"/><path class="cls-1" d="M163.18,94.32a12.43,12.43,0,0,1,3.51,2L164.57,99a9.14,9.14,0,0,0-6.07-2.24,7.6,7.6,0,0,0-3.94,1,7.08,7.08,0,0,0-2.65,2.78,8.3,8.3,0,0,0-.94,4,8.07,8.07,0,0,0,1,4,7,7,0,0,0,2.72,2.74,8.11,8.11,0,0,0,4.06,1,7.55,7.55,0,0,0,3.72-.87,6.38,6.38,0,0,0,3.37-5h-6.58v-2.94h9.93v1.26a11.92,11.92,0,0,1-1.18,5.26,9.73,9.73,0,0,1-3.56,4,10.58,10.58,0,0,1-5.79,1.52A12,12,0,0,1,153,114a9.9,9.9,0,0,1-4-3.82,11.1,11.1,0,0,1-1.43-5.7A11.36,11.36,0,0,1,149,98.82a9.89,9.89,0,0,1,3.92-3.88,11.66,11.66,0,0,1,5.79-1.41,12.39,12.39,0,0,1,4.52.77Z"/><path class="cls-1" d="M174.14,114.47a6.45,6.45,0,0,1-2.44-2.55,8.81,8.81,0,0,1,0-7.8,6.49,6.49,0,0,1,5.82-3.46,5.59,5.59,0,0,1,2.81.66,5.1,5.1,0,0,1,1.86,1.83h.06v-2h2.93v13.82h-2.93v-2h-.06a5,5,0,0,1-1.86,1.83,5.62,5.62,0,0,1-2.81.66,6.53,6.53,0,0,1-3.38-.9Zm.93-3.21a4.45,4.45,0,0,0,6.16,0,5.09,5.09,0,0,0,0-6.49,4.47,4.47,0,0,0-6.16,0A4.56,4.56,0,0,0,173.9,108,4.5,4.5,0,0,0,175.07,111.26Z"/><path class="cls-1" d="M193.76,114.71a4.92,4.92,0,0,1-1.86-1.82h-.06v2H188.9V94h2.94v9.14h.06a5,5,0,0,1,1.86-1.82,5.59,5.59,0,0,1,2.81-.66,6.5,6.5,0,0,1,5.82,3.45,8.81,8.81,0,0,1,0,7.8,6.45,6.45,0,0,1-5.82,3.45,5.59,5.59,0,0,1-2.81-.65Zm-.9-3.45a4.45,4.45,0,0,0,6.16,0,5.09,5.09,0,0,0,0-6.49,4.47,4.47,0,0,0-6.16,0,4.61,4.61,0,0,0-1.17,3.25A4.54,4.54,0,0,0,192.86,111.26Z"/><path class="cls-1" d="M216.53,101.62a7.06,7.06,0,0,1,2.71,2.63,7.67,7.67,0,0,1,0,7.54,7.2,7.2,0,0,1-2.71,2.63,7.93,7.93,0,0,1-3.87,1,7.79,7.79,0,0,1-3.87-1,7.13,7.13,0,0,1-2.71-2.63,7.27,7.27,0,0,1-1-3.77,7.15,7.15,0,0,1,1-3.77,7,7,0,0,1,2.71-2.63,7.79,7.79,0,0,1,3.87-1A7.72,7.72,0,0,1,216.53,101.62Zm-7.09,9.66A4.91,4.91,0,1,0,208.2,108,4.35,4.35,0,0,0,209.44,111.28Z"/><path class="cls-1" d="M234.21,102a5.94,5.94,0,0,1,1.41,4.38v8.49h-2.93v-8q0-3.34-3.18-3.35a3.38,3.38,0,0,0-2.69,1.13,5.39,5.39,0,0,0-1,3.59v6.61h-2.93V101.1h2.93v2.1h.06a4.81,4.81,0,0,1,4.51-2.54,5.14,5.14,0,0,1,3.8,1.39Z"/></g></svg>