<svg id="Calque_1" data-name="Calque 1" xmlns="http://www.w3.org/2000/svg" viewBox="0 0 388.14 132.29"><defs><style>.cls-1{fill:#fff;}.cls-2{fill:#211f5c;}.cls-3{fill:#00eda6;}</style></defs><rect class="cls-1" width="388.14" height="132.29"/><g id="Calque_1-2" data-name="Calque 1-2"><path class="cls-2" d="M69.7,72.71c-11.9,0-19.53-6.76-19.53-19.34S57.8,34,69.7,34s19,6.26,19.59,17.94v2.8c-.55,11.67-8,17.94-19.59,17.94M96.47,28H89.29v6.91C84.6,30.48,77.85,28,69.7,28,53.7,28,43,37.56,43,53.37S53.7,78.71,69.7,78.71c8.15,0,14.9-2.44,19.59-6.9v6.85h7.18Z"/><rect class="cls-2" x="157.2" y="28.03" width="7.18" height="50.21"/><polygon class="cls-2" points="153.06 27.93 143.54 27.93 126.8 47.2 110.05 27.93 100.53 27.93 122.03 52.67 99.44 78.67 108.95 78.67 126.8 58.15 144.26 78.24 153.78 78.24 131.56 52.67 153.06 27.93"/><path class="cls-3" d="M197.85,62.5c-11.91,0-19.52-6.77-19.52-19.34S186,23.81,197.85,23.81s19.63,6.77,19.63,19.35S209.86,62.5,197.85,62.5m0-44.68c-16,0-26.67,9.52-26.67,25.34s10.67,25.33,26.67,25.33S224.62,59,224.62,43.16,214,17.82,197.85,17.82"/><path class="cls-2" d="M284.86,52.35l0,0c-.46-15.19-11-24.3-26.75-24.3-8.1,0-14.82,2.44-19.5,6.89V28h-7.18V78.24h7.18V52c.55-11.68,8-18,19.5-18s19,6.26,19.59,17.94V78.7h7.18Z"/><path class="cls-2" d="M299,50.37C300.1,39.73,307.41,34,318.33,34s18.33,5.7,19.47,16.34ZM318.33,28c-16,0-26.67,9.53-26.67,25.34v.14c0,9.34,3.81,16.47,10.21,20.73,4.38,2.91,10,4.47,16.47,4.47,11.76,0,20.61-5.08,24.54-14H335.1c-3.25,5.24-9.12,8-16.76,8s-13.18-2.63-16.47-7.66a18.79,18.79,0,0,1-2.74-7.5h45.71a31.35,31.35,0,0,0,.27-4.18c0-15.81-10.68-25.34-26.77-25.34"/><path class="cls-3" d="M216.49,78.24c-4.63-3.92-11-6-18.65-6s-13.94,2.13-18.55,6Z"/><polyline class="cls-2" points="43.03 107.41 141.76 107.41 141.76 106.37 43.03 106.37"/><polyline class="cls-2" points="246.27 107.41 345 107.41 345 106.37 246.27 106.37"/><path class="cls-2" d="M165.36,93.42a12.25,12.25,0,0,1,3.52,2l-2.13,2.6a9,9,0,0,0-6.06-2.24,7.64,7.64,0,0,0-3.95,1,7,7,0,0,0-2.65,2.78,8.41,8.41,0,0,0-.94,4,8.1,8.1,0,0,0,1,4,7,7,0,0,0,2.73,2.74,8.07,8.07,0,0,0,4.05,1,7.59,7.59,0,0,0,3.73-.86,6.4,6.4,0,0,0,2.4-2.23,6.33,6.33,0,0,0,1-2.83h-6.58v-2.93h9.93v1.25a12,12,0,0,1-1.18,5.27,9.66,9.66,0,0,1-3.56,4,10.56,10.56,0,0,1-5.79,1.52,11.78,11.78,0,0,1-5.66-1.35,9.84,9.84,0,0,1-4-3.81,11.12,11.12,0,0,1-1.43-5.7,11.46,11.46,0,0,1,1.39-5.68A9.82,9.82,0,0,1,155.06,94a11.68,11.68,0,0,1,5.79-1.41,12.48,12.48,0,0,1,4.53.77Z"/><path class="cls-2" d="M176.32,113.57a6.66,6.66,0,0,1-2.44-2.55,8.83,8.83,0,0,1,0-7.81,6.59,6.59,0,0,1,2.44-2.55,6.5,6.5,0,0,1,3.38-.9,5.59,5.59,0,0,1,2.81.66,5,5,0,0,1,1.86,1.83h.06v-2h2.94V114h-2.94v-2h-.06a5,5,0,0,1-1.86,1.83,5.62,5.62,0,0,1-2.81.66,6.62,6.62,0,0,1-3.38-.9Zm.93-3.21a4.45,4.45,0,0,0,6.16,0,5.09,5.09,0,0,0,0-6.49,4.45,4.45,0,0,0-6.16,0,4.59,4.59,0,0,0-1.17,3.25A4.54,4.54,0,0,0,177.25,110.36Z"/><path class="cls-2" d="M195.94,113.81a5,5,0,0,1-1.86-1.83H194v2h-2.93V93.08H194v9.15h.06a5,5,0,0,1,1.86-1.82,5.49,5.49,0,0,1,2.81-.66,6.53,6.53,0,0,1,3.38.9,6.45,6.45,0,0,1,2.44,2.55,8.81,8.81,0,0,1,0,7.8,6.5,6.5,0,0,1-5.82,3.45,5.49,5.49,0,0,1-2.81-.66Zm-.9-3.45a4.45,4.45,0,0,0,6.16,0,5.09,5.09,0,0,0,0-6.49,4,4,0,0,0-3.08-1.24,4.07,4.07,0,0,0-3.08,1.24,4.59,4.59,0,0,0-1.17,3.25A4.54,4.54,0,0,0,195,110.36Z"/><path class="cls-2" d="M218.71,100.71a7.09,7.09,0,0,1,2.71,2.64,7.65,7.65,0,0,1,0,7.53,7.09,7.09,0,0,1-2.71,2.64,7.9,7.9,0,0,1-3.87,1,7.82,7.82,0,0,1-3.87-1,7.35,7.35,0,0,1,0-12.81,7.92,7.92,0,0,1,3.87-.95A7.79,7.79,0,0,1,218.71,100.71Zm-7.09,9.66a4.89,4.89,0,1,0-1.24-3.25A4.37,4.37,0,0,0,211.62,110.37Z"/><path class="cls-2" d="M236.4,101.14a6,6,0,0,1,1.4,4.38V114h-2.93v-8c0-2.22-1.06-3.35-3.17-3.35a3.39,3.39,0,0,0-2.7,1.14,5.44,5.44,0,0,0-1,3.59V114h-2.93V100.2H228v2.09h.06a4.82,4.82,0,0,1,4.52-2.53,5.17,5.17,0,0,1,3.8,1.39Z"/></g></svg>