<?xml version="1.0" encoding="UTF-8"?><svg id="a" xmlns="http://www.w3.org/2000/svg" viewBox="0 0 36 36"><defs><style>.b{fill:#00eda6;}</style></defs><path class="b" d="M29.74,16.26c.02,3.22-.8,5.32-2.24,7.2-1.95,2.53-3.88,5.08-5.82,7.61-1.41,1.84-2.62,1.86-4.04,.03-2.05-2.64-4.08-5.3-6.09-7.98-.45-.6-.86-1.25-1.14-1.94-.49-1.18,0-2.37,1.08-2.85,1.13-.51,2.25-.16,2.86,1.01,.7,1.35,1.64,2.41,3.08,2.99,2.89,1.18,6.03-.04,7.41-2.87,1.28-2.63,.3-5.82-2.27-7.36-1.75-1.05-2.25-2.18-1.52-3.4,.75-1.24,2.04-1.4,3.75-.34,3.2,2.01,4.84,4.93,4.94,7.89Z"/><g><path class="b" d="M9.62,7.52c-.13-.11-.17-.22-.17-.38-.03-.6-.5-1.02-1.06-.98-.54,.04-.96,.53-.9,1.06,.06,.6,.55,.98,1.16,.89,.15-.02,.26,0,.37,.1,.95,.83,1.71,1.8,2.29,2.92l.82-.36c-.6-1.26-1.44-2.35-2.51-3.25Zm-.93,.01c-.2,.13-.52,.04-.62-.19-.11-.24-.05-.46,.19-.59,.24-.13,.44-.04,.59,.17,.11,.25,.05,.46-.17,.6Zm4.95,2.41c-.29-.59-.51-1.2-.82-1.78-.46-.86-.89-1.74-1.33-2.62-.06-.12-.1-.22-.03-.37,.25-.54,0-1.12-.54-1.34-.5-.2-1.09,.07-1.28,.6-.19,.53,.09,1.11,.67,1.27,.21,.06,.32,.18,.41,.37,.69,1.37,1.39,2.73,2.08,4.09,.04,.09,.08,.17,.12,.26l.79-.34s-.04-.09-.07-.14Zm-2.87-4.78c-.25,.08-.46,.04-.59-.2-.12-.22-.03-.5,.21-.6,.25-.11,.46-.02,.57,.21,.12,.24,.02,.44-.19,.59Zm4.56,4.2c-.34-.57-.59-1.19-.77-1.8-.19-.63-.18-1.33-.26-2-.02-.14,.06-.23,.15-.32,.43-.44,.41-1.07-.04-1.46-.4-.36-1.03-.31-1.39,.11-.38,.43-.31,1.06,.16,1.43,.14,.11,.19,.23,.21,.4,.15,1.36,.38,2.71,1.07,3.93,.02,.03,.04,.07,.05,.1l.83-.36v-.02Zm-1.37-4.45c-.23,.12-.46,.05-.59-.19-.12-.22-.15-.45,.13-.55,.28-.15,.54-.09,.64,.14,.11,.24,.05,.47-.19,.59Z"/><path class="b" d="M9.59,15.9c.22-4.36,4.65-8.77,8.94-8.87,.47-.01,1-.04,1.04,.68,.03,.68-.21,.97-.94,1.07-3.73,.5-6.85,3.42-7.28,7.03-.01,.11-.05,.22-.06,.33-.04,.62-.33,1.03-.99,.94-.66-.09-.8-.59-.72-1.19Z"/><path class="b" d="M12.29,16.02c.38-3.39,3.21-5.84,6.29-6.3,.55-.08,.89,.26,1,.83,.11,.62-.27,.76-.74,.85-2.72,.54-4.4,2.12-4.88,4.89-.09,.54-.4,.83-.92,.78-.6-.06-.77-.51-.75-1.06Z"/></g></svg>