<?xml version="1.0" encoding="UTF-8"?><svg id="a" xmlns="http://www.w3.org/2000/svg" viewBox="0 0 341.76 264.81"><path d="M339.94,114.67c-4.93-15.28-17.35-22.46-32.54-24.05-14.45-1.51-27.52,2.71-39.22,11.04-7.29,5.19-13.49,11.43-15.52,20.7-.12,.55-1.15,1.17-1.84,1.28-3.04,.48-6.15,.61-9.17,1.18-9.58,1.82-19.12,3.77-28.38,5.61-3.03-4.32-6.26-8.91-9.66-13.77,.02-.03,.25-.57,.59-1.03,7.9-10.78,15.81-21.56,23.78-32.41,8.99,3.22,18.28,3.9,27.49,.04,17.3-7.26,27.78-20.61,32.83-38.26,4.52-15.77-.27-30.06-12.94-38.64-11.76-7.96-24.76-8.07-37.26-2.45-17.29,7.78-26.99,21.82-29.12,40.66-1.03,9.1,0,18.13,4.93,26.2,1.39,2.27,1.3,3.95-.23,5.93-3.91,5.06-7.72,10.2-11.62,15.27-16.72,21.75-33.35,43.58-50.22,65.2-13.04,16.71-26.36,33.19-39.61,49.73-12.05,15.04-24.18,30.02-36.51,45.33,1.17,.34,2.2,.75,3.26,.94,7.69,1.36,14.12-1.39,19.46-6.63,29.08-28.5,58.11-57.07,87.05-85.71,4.23-4.18,8.85-7.73,13.93-10.74,.8-.48,1.7-.91,2.61-1.09,16.24-3.35,32.5-6.61,48.73-10.02,1.92-.41,2.74,.13,3.59,1.72,8.19,15.32,21.62,22.37,38.37,23.56,13.98,.99,26.29-3.8,36.56-13.11,10.85-9.83,15.28-22.16,10.66-36.48ZM244.31,18.29c7.42-3.53,14.75-3.02,21.77,.8,5.61,3.04,8.34,8.08,8.16,15.96-.12,13.32-12.1,29.95-25.79,34.41-11.77,3.83-22.58-3.58-23.85-15.87-1.57-15.14,7.81-29.65,19.71-35.3Zm-54.71,124.04c-3.15-.02-5.59-2.23-5.56-5.04,.03-2.66,2.6-5.05,5.43-5.05,2.75,.01,5.2,2.54,5.13,5.3-.07,2.73-2.24,4.8-5,4.79Zm132.21-6.03c-6.04,7.73-16.01,12.57-26.78,12.58-7.92-.51-16.38-2.1-22.64-9.12-1.67-1.89-3.05-4.15-4.11-6.45-1.91-4.13-1.29-8.17,1.34-11.87,4.03-5.65,9.69-9.16,15.96-11.68,8.09-3.26,16.49-5.12,25.15-2.8,3.03,.81,6.06,2.38,8.55,4.3,8.44,6.53,9.3,16.38,2.53,25.04Z"/><path d="M301.21,232.42c-4.75-2.52-10.02-2.66-15.04-3.94-14.19-3.61-28.22-7.67-40.92-15.19-15.22-9.02-27.58-21.24-38.23-35.24-3.9-5.14-7.51-10.49-11.15-15.59-7.75,6.77-15.53,13.59-23.37,20.46,2.15,2.51,4.22,4.9,6.26,7.31,6.2,7.37,12.21,14.91,18.63,22.09,14.13,15.79,30.87,28.18,50.51,36.18,13.91,5.67,28.18,10.47,42.34,15.5,3.64,1.3,7.48,1.04,10.93-.83,6.3-3.41,8.74-9.22,8.71-15.99-.04-6.42-2.65-11.56-8.67-14.76Zm-3.86,22.5c-2.23,1.69-4.82,1.42-6.28-.95-.89-1.44-1.27-3.2-1.88-4.81,.41-3.34,1.55-6.03,4.16-7.95,2.21-1.64,4.27-1.27,5.9,.95,2.66,3.63,1.71,10.02-1.9,12.76Z"/><path d="M78.45,74.45c-1.95-.3-3.9-.59-5.86-.88-.03-.04-.07-.07-.1-.11-.31-.35-.62-.7-.92-1.04,2.31,.68,4.61,1.35,6.88,2.03Z"/><path d="M165.58,127.15c-1.42,4.76-3.97,8.59-6.8,12.21-3.31,4.23-6.76,8.35-10.24,12.43-.6,.7-1.65,1.2-2.58,1.42-25.98,6.1-51.98,12.15-77.97,18.23-8.92,2.09-17.83,4.26-26.74,6.39-.49,.12-1,.16-1.5,.24-.63-9.5,6.32-17.61,13.2-19.46,12.53-3.38,24.98-7.04,37.47-10.55,24.41-6.86,48.83-13.7,73.25-20.53,.54-.15,1.1-.22,1.92-.37Z"/><path d="M51.7,75.75c-16.27-2.47-33.41-4.76-51.7-6.84l2.59-4.48c13.77,1.46,27.02,3.06,39.77,4.78,2.95,.39,5.87,.79,8.76,1.2,.21,.03,.42,.06,.62,.09-.06,.44-.11,.87-.14,1.32-.02,.18-.04,.37-.05,.55-.08,1.2-.03,2.33,.15,3.38Z"/><path d="M163.07,119.45c-7.86-8.71-16.48-16.59-25.73-23.8-1.62-1.26-3.26-2.5-4.91-3.71-.51-.38-1.02-.76-1.54-1.12-19.45-14.05-40.79-24.77-62.68-34.5-2.06-.92-4.07-1-6.01-.37-.94,.29-1.86,.76-2.76,1.37-.24,.16-.47,.33-.69,.51-.13,.09-.25,.19-.37,.29-.48,.36-.92,.75-1.34,1.17-.53,.51-1.01,1.04-1.44,1.59-.61,.76-1.14,1.56-1.6,2.39-.65,1.17-1.15,2.41-1.53,3.72-.34,1.12-.58,2.3-.73,3.51-.06,.44-.11,.87-.14,1.32-.02,.18-.04,.37-.05,.55-.08,1.2-.03,2.33,.15,3.38,.57,3.36,2.54,5.94,6.35,7.4,1.5,.57,2.91,1.39,4.36,2.1,17.98,8.77,35.46,18.43,51.61,30.31,5.18,3.81,10.01,8.1,15.21,12.33,11.24-2.35,22.79-4.76,34.74-7.26-.56-.73-.71-.97-.9-1.18Zm-90.48-45.88s-.07-.07-.1-.11c-.31-.35-.62-.7-.92-1.04,2.31,.68,4.61,1.35,6.88,2.03-1.95-.3-3.9-.59-5.86-.88Z"/><path d="M52.47,66.99c-.34,1.12-.58,2.3-.73,3.51-.06,.44-.11,.87-.14,1.32-3.05-.87-6.12-1.74-9.24-2.61-11.74-3.3-24-6.56-36.87-9.81l2.35-4.07c15.55,3.83,30.41,7.72,44.63,11.66Z"/><path d="M78.45,74.45c-1.95-.3-3.9-.59-5.86-.88-.03-.04-.07-.07-.1-.11-.31-.35-.62-.7-.92-1.04,2.31,.68,4.61,1.35,6.88,2.03Z"/><path d="M132.43,91.94c-.51-.38-1.02-.76-1.54-1.12,1.48,.53,1.97,.89,1.54,1.12Z"/><path d="M60.51,64.08c-.53,.51-1.01,1.04-1.44,1.59-.61,.76-1.14,1.56-1.6,2.39-12.16-6.89-24.96-13.9-38.57-21.07l2.29-3.97c11.75,6.09,23.02,12.1,33.86,18.05,1.83,1,3.65,2.01,5.46,3.01Z"/><path d="M58.75,57.83c-.13,.09-.25,.19-.37,.29-.48,.36-.92,.75-1.34,1.17-.53,.51-1.01,1.04-1.44,1.59-1.35-1.54-2.69-3.07-4.02-4.6-9.23-10.59-18.02-20.92-26.38-31l2.51-4.36c9.62,11.83,19.93,24.1,31.04,36.91Z"/></svg>